<?xml version="1.0" standalone="no"?>
<!DOCTYPE svg PUBLIC "-//W3C//DTD SVG 20010904//EN"
 "http://www.w3.org/TR/2001/REC-SVG-20010904/DTD/svg10.dtd">
<svg version="1.0" xmlns="http://www.w3.org/2000/svg"
 width="500.000000pt" height="500.000000pt" viewBox="0 0 500.000000 500.000000"
 preserveAspectRatio="xMidYMid meet">
<metadata>
Created by potrace 1.11, written by Peter Selinger 2001-2013
</metadata>
<g transform="translate(0.000000,500.000000) scale(0.100000,-0.100000)"
fill="#000000" stroke="none">
<path d="M0 2500 l0 -2500 2500 0 2500 0 0 2500 0 2500 -2500 0 -2500 0 0
-2500z m2151 1874 c4 -2 -22 -106 -57 -232 -35 -126 -65 -240 -68 -253 -5 -28
-41 -162 -116 -439 -98 -363 -198 -735 -203 -757 l-5 -23 829 0 828 0 15 53
c42 146 146 525 150 547 14 65 41 166 73 275 19 66 54 197 78 290 23 94 66
255 95 358 l53 188 143 -2 c139 -1 144 -2 144 -22 0 -11 -18 -86 -41 -166 -22
-80 -62 -229 -89 -331 -52 -203 -116 -442 -220 -825 -58 -212 -90 -341 -90
-360 0 -3 91 -5 201 -5 187 0 201 -1 196 -17 -2 -10 -22 -78 -43 -150 l-38
-133 -202 0 -203 0 -16 -57 c-10 -32 -23 -85 -30 -118 -7 -33 -34 -136 -60
-230 -99 -356 -116 -418 -119 -439 -3 -11 -5 -21 -7 -21 -1 0 -3 -9 -4 -20 -2
-11 -45 -175 -98 -365 -52 -190 -101 -372 -109 -405 l-14 -60 -147 -3 c-163
-3 -156 -7 -133 70 8 25 17 63 20 84 4 20 13 60 21 88 70 250 125 450 135 496
7 30 44 167 82 304 38 137 80 295 93 350 13 56 38 148 54 206 17 58 31 108 31
113 0 4 -373 7 -829 7 l-830 0 -15 -52 c-28 -99 -48 -173 -52 -198 -2 -14 -44
-169 -93 -345 -49 -176 -101 -367 -115 -425 -14 -58 -46 -177 -71 -265 -24
-88 -61 -222 -81 -297 l-37 -138 -144 0 c-162 0 -155 -5 -128 85 9 28 18 63
21 79 5 29 30 122 109 406 25 91 47 174 49 185 7 36 18 78 63 240 90 328 102
374 107 401 5 25 66 255 82 307 5 16 -9 17 -200 17 -113 0 -206 1 -206 3 0 9
72 256 80 275 l10 23 199 -3 199 -3 81 295 c44 162 86 318 93 345 6 28 36 138
66 245 29 107 63 233 74 280 16 72 66 253 135 498 l15 53 141 -2 c78 -1 145
-4 148 -5z m339 -2235 c102 -16 171 -60 248 -158 119 -150 97 -405 -50 -600
-45 -59 -651 -710 -675 -724 -34 -20 -49 5 -157 264 -59 144 -124 311 -143
373 -32 101 -34 119 -29 196 10 167 70 293 206 430 122 123 267 205 385 217
28 3 52 7 54 9 8 8 97 4 161 -7z"/>
<path d="M2275 1979 c-150 -30 -309 -156 -381 -303 -37 -75 -39 -85 -39 -170
1 -109 23 -166 88 -221 99 -85 291 -84 434 2 207 124 317 378 234 541 -60 118
-195 178 -336 151z m125 -174 c49 -25 83 -86 83 -149 0 -181 -232 -342 -383
-264 -87 44 -114 162 -62 264 23 46 109 129 149 145 79 32 156 33 213 4z"/>
</g>
</svg>
